<?xml version="1.0" encoding="UTF-8" standalone="no"?>
<svg
   xmlns:osb="http://www.openswatchbook.org/uri/2009/osb"
   xmlns:dc="http://purl.org/dc/elements/1.1/"
   xmlns:cc="http://creativecommons.org/ns#"
   xmlns:rdf="http://www.w3.org/1999/02/22-rdf-syntax-ns#"
   xmlns:svg="http://www.w3.org/2000/svg"
   xmlns="http://www.w3.org/2000/svg"
   xmlns:xlink="http://www.w3.org/1999/xlink"
   xmlns:sodipodi="http://sodipodi.sourceforge.net/DTD/sodipodi-0.dtd"
   xmlns:inkscape="http://www.inkscape.org/namespaces/inkscape"
   id="SVGRoot"
   version="1.1"
   viewBox="0 0 64.0 64.0"
   height="64.0px"
   width="64.0px"
   inkscape:version="1.0 (4035a4fb49, 2020-05-01)"
   sodipodi:docname="ibus-english.svg">
  <defs
     id="defs10">
    <linearGradient
       id="linearGradient5785"
       osb:paint="solid">
      <stop
         style="stop-color:#414141;stop-opacity:1;"
         offset="0"
         id="stop5783" />
    </linearGradient>
    <linearGradient
       inkscape:collect="always"
       xlink:href="#linearGradient5785"
       id="linearGradient5787"
       x1="13.750001"
       y1="32"
       x2="50.249999"
       y2="32"
       gradientUnits="userSpaceOnUse" />
  </defs>
  <sodipodi:namedview
     id="base"
     pagecolor="#ffffff"
     bordercolor="#666666"
     borderopacity="1.0"
     inkscape:pageopacity="0.0"
     inkscape:pageshadow="2"
     inkscape:zoom="9.5591379"
     inkscape:cx="18.882098"
     inkscape:cy="26.773288"
     inkscape:document-units="px"
     inkscape:current-layer="layer1"
     inkscape:document-rotation="0"
     showgrid="false"
     inkscape:window-width="1782"
     inkscape:window-height="981"
     inkscape:window-x="40"
     inkscape:window-y="0"
     inkscape:window-maximized="1">
    <inkscape:grid
       id="grid19"
       type="xygrid" />
  </sodipodi:namedview>
  <metadata
     id="metadata13">
    <rdf:RDF>
      <cc:Work
         rdf:about="">
        <dc:format>image/svg+xml</dc:format>
        <dc:type
           rdf:resource="http://purl.org/dc/dcmitype/StillImage" />
        <dc:title></dc:title>
      </cc:Work>
    </rdf:RDF>
  </metadata>
  <g
     inkscape:label="Layer 1"
     inkscape:groupmode="layer"
     id="layer1">
    <path
       sodipodi:type="star"
       style="fill:#fa5a5a;fill-opacity:1;stroke:url(#linearGradient5787);stroke-width:0.814672;stroke-linecap:round;stroke-linejoin:round;stroke-miterlimit:4;stroke-dasharray:none;stroke-opacity:1;paint-order:stroke fill markers"
       id="path3762"
       sodipodi:sides="4"
       sodipodi:cx="32"
       sodipodi:cy="32"
       sodipodi:r1="22.811083"
       sodipodi:r2="13.923287"
       sodipodi:arg1="2.3507061"
       sodipodi:arg2="3.1361043"
       inkscape:flatsided="true"
       inkscape:rounded="0.1"
       inkscape:randomized="0"
       d="m 15.958898,48.218155 c -2.293593,-2.268554 -2.445607,-29.965663 -0.177053,-32.259257 2.268554,-2.293593 29.965663,-2.445607 32.259257,-0.177053 2.293593,2.268554 2.445607,29.965663 0.177053,32.259257 -2.268554,2.293593 -29.965663,2.445607 -32.259257,0.177053 z" />
    <text
       xml:space="preserve"
       style="font-style:normal;font-weight:normal;font-size:40px;line-height:1.25;font-family:sans-serif;fill:#000000;fill-opacity:1;stroke:none"
       x="23.765886"
       y="52.326023"
       id="text5836"><tspan
         sodipodi:role="line"
         id="tspan5834"
         x="23.765886"
         y="52.326023">T</tspan></text>
    <g
       aria-label="T"
       id="text5858"
       style="font-style:normal;font-weight:normal;font-size:40px;line-height:1.25;font-family:sans-serif;fill:#000000;fill-opacity:1;stroke:#000000;stroke-width:2;stroke-miterlimit:4;stroke-dasharray:none;stroke-opacity:1">
      <g
         id="g5872"
         style="opacity:1">
        <path
           style="color:#000000;font-style:normal;font-variant:normal;font-weight:normal;font-stretch:normal;font-size:medium;line-height:1.25;font-family:sans-serif;font-variant-ligatures:normal;font-variant-position:normal;font-variant-caps:normal;font-variant-numeric:normal;font-variant-alternates:normal;font-variant-east-asian:normal;font-feature-settings:normal;font-variation-settings:normal;text-indent:0;text-align:start;text-decoration:none;text-decoration-line:none;text-decoration-style:solid;text-decoration-color:#000000;letter-spacing:normal;word-spacing:normal;text-transform:none;writing-mode:lr-tb;direction:ltr;text-orientation:mixed;dominant-baseline:auto;baseline-shift:baseline;text-anchor:start;white-space:normal;shape-padding:0;shape-margin:0;inline-size:0;clip-rule:nonzero;display:inline;overflow:visible;visibility:visible;isolation:auto;mix-blend-mode:normal;color-interpolation:sRGB;color-interpolation-filters:linearRGB;solid-color:#000000;solid-opacity:1;vector-effect:none;fill:#000000;fill-opacity:1;fill-rule:nonzero;stroke:none;stroke-width:2;stroke-linecap:butt;stroke-linejoin:miter;stroke-miterlimit:4;stroke-dasharray:none;stroke-dashoffset:0;stroke-opacity:1.0;color-rendering:auto;image-rendering:auto;shape-rendering:auto;text-rendering:auto;enable-background:accumulate;stop-color:#000000;stop-opacity:1;"
           d="m 36.845886,52.326023 c -0.426667,0 -0.8,-0.146667 -1.12,-0.44 -0.293333,-0.32 -0.44,-0.693333 -0.44,-1.12 v -29.68 h 3.12 v 29.68 c 0,0.426667 -0.146667,0.8 -0.44,1.12 -0.293333,0.293333 -0.666667,0.44 -1.12,0.44 z m -11.04,-28.4 c -0.426667,0 -0.773333,-0.133333 -1.04,-0.4 -0.266667,-0.266667 -0.4,-0.6 -0.4,-1 0,-0.426667 0.133333,-0.773333 0.4,-1.04 0.266667,-0.266667 0.613333,-0.4 1.04,-0.4 h 22.12 c 0.426667,0 0.773333,0.133333 1.04,0.4 0.266667,0.266667 0.4,0.613333 0.4,1.04 0,0.4 -0.133333,0.733333 -0.4,1 -0.266667,0.266667 -0.613333,0.4 -1.04,0.4 z"
           id="path5874" />
        <path
           style="color:#000000;font-style:normal;font-variant:normal;font-weight:normal;font-stretch:normal;font-size:medium;line-height:1.25;font-family:sans-serif;font-variant-ligatures:normal;font-variant-position:normal;font-variant-caps:normal;font-variant-numeric:normal;font-variant-alternates:normal;font-variant-east-asian:normal;font-feature-settings:normal;font-variation-settings:normal;text-indent:0;text-align:start;text-decoration:none;text-decoration-line:none;text-decoration-style:solid;text-decoration-color:#000000;letter-spacing:normal;word-spacing:normal;text-transform:none;writing-mode:lr-tb;direction:ltr;text-orientation:mixed;dominant-baseline:auto;baseline-shift:baseline;text-anchor:start;white-space:normal;shape-padding:0;shape-margin:0;inline-size:0;clip-rule:nonzero;display:inline;overflow:visible;visibility:visible;isolation:auto;mix-blend-mode:normal;color-interpolation:sRGB;color-interpolation-filters:linearRGB;solid-color:#000000;solid-opacity:1;vector-effect:none;fill:#000000;fill-opacity:1;fill-rule:nonzero;stroke:none;stroke-width:2;stroke-linecap:butt;stroke-linejoin:miter;stroke-miterlimit:4;stroke-dasharray:none;stroke-dashoffset:0;stroke-opacity:1.0;color-rendering:auto;image-rendering:auto;shape-rendering:auto;text-rendering:auto;enable-background:accumulate;stop-color:#000000;stop-opacity:1;"
           d="M 25.806641 20.085938 C 25.171641 20.085938 24.513822 20.324068 24.058594 20.779297 C 23.603365 21.234525 23.365234 21.890391 23.365234 22.525391 C 23.365234 23.147613 23.61515 23.788979 24.058594 24.232422 C 24.513822 24.68765 25.171641 24.925781 25.806641 24.925781 L 34.285156 24.925781 L 34.285156 50.765625 C 34.285156 51.421458 34.545354 52.079306 34.988281 52.5625 L 35.017578 52.59375 L 35.050781 52.623047 C 35.533975 53.065975 36.18987 53.326172 36.845703 53.326172 C 37.514723 53.326172 38.198361 53.069217 38.673828 52.59375 L 38.6875 52.578125 L 38.703125 52.5625 C 39.146053 52.079306 39.40625 51.421458 39.40625 50.765625 L 39.40625 24.925781 L 47.925781 24.925781 C 48.560781 24.925781 49.2186 24.68765 49.673828 24.232422 C 50.117271 23.788979 50.365234 23.147613 50.365234 22.525391 C 50.365234 21.890391 50.129057 21.234525 49.673828 20.779297 C 49.2186 20.324068 48.560781 20.085938 47.925781 20.085938 L 39.40625 20.085938 L 34.285156 20.085938 L 25.806641 20.085938 z M 25.806641 22.085938 L 34.285156 22.085938 L 34.285156 22.925781 L 25.806641 22.925781 C 25.588307 22.925781 25.550761 22.896464 25.472656 22.818359 C 25.382766 22.728469 25.365234 22.703168 25.365234 22.525391 C 25.365234 22.307057 25.394551 22.271464 25.472656 22.193359 C 25.550761 22.115255 25.588307 22.085938 25.806641 22.085938 z M 36.285156 22.085938 L 37.40625 22.085938 L 37.40625 22.925781 L 36.285156 22.925781 L 36.285156 22.085938 z M 39.40625 22.085938 L 47.925781 22.085938 C 48.144115 22.085938 48.179708 22.115255 48.257812 22.193359 C 48.335917 22.271464 48.365234 22.307057 48.365234 22.525391 C 48.365234 22.703168 48.347702 22.728469 48.257812 22.818359 C 48.179708 22.896464 48.144115 22.925781 47.925781 22.925781 L 39.40625 22.925781 L 39.40625 22.085938 z M 36.285156 24.925781 L 37.40625 24.925781 L 37.40625 50.765625 C 37.40625 50.952667 37.363549 51.045237 37.238281 51.1875 C 37.136255 51.286553 37.071929 51.326172 36.845703 51.326172 C 36.667398 51.326172 36.576636 51.27708 36.445312 51.166016 C 36.335299 51.035493 36.285156 50.943255 36.285156 50.765625 L 36.285156 24.925781 z "
           id="path5876" />
      </g>
    </g>
  </g>
</svg>
