<?xml version="1.0" encoding="UTF-8" standalone="no"?>
<svg
   xmlns:osb="http://www.openswatchbook.org/uri/2009/osb"
   xmlns:dc="http://purl.org/dc/elements/1.1/"
   xmlns:cc="http://creativecommons.org/ns#"
   xmlns:rdf="http://www.w3.org/1999/02/22-rdf-syntax-ns#"
   xmlns:svg="http://www.w3.org/2000/svg"
   xmlns="http://www.w3.org/2000/svg"
   xmlns:xlink="http://www.w3.org/1999/xlink"
   xmlns:sodipodi="http://sodipodi.sourceforge.net/DTD/sodipodi-0.dtd"
   xmlns:inkscape="http://www.inkscape.org/namespaces/inkscape"
   id="SVGRoot"
   version="1.1"
   viewBox="0 0 64.0 64.0"
   height="64.0px"
   width="64.0px"
   inkscape:version="1.0 (4035a4fb49, 2020-05-01)"
   sodipodi:docname="ibus-english.svg">
  <defs
     id="defs10">
    <linearGradient
       id="linearGradient5785"
       osb:paint="solid">
      <stop
         style="stop-color:#414141;stop-opacity:1;"
         offset="0"
         id="stop5783" />
    </linearGradient>
    <linearGradient
       inkscape:collect="always"
       xlink:href="#linearGradient5785"
       id="linearGradient5787"
       x1="13.750001"
       y1="32"
       x2="50.249999"
       y2="32"
       gradientUnits="userSpaceOnUse" />
  </defs>
  <sodipodi:namedview
     id="base"
     pagecolor="#ffffff"
     bordercolor="#666666"
     borderopacity="1.0"
     inkscape:pageopacity="0.0"
     inkscape:pageshadow="2"
     inkscape:zoom="9.0674598"
     inkscape:cx="18.882098"
     inkscape:cy="26.773288"
     inkscape:document-units="px"
     inkscape:current-layer="layer1"
     inkscape:document-rotation="0"
     showgrid="false"
     inkscape:window-width="1782"
     inkscape:window-height="981"
     inkscape:window-x="40"
     inkscape:window-y="0"
     inkscape:window-maximized="1">
    <inkscape:grid
       id="grid19"
       type="xygrid" />
  </sodipodi:namedview>
  <metadata
     id="metadata13">
    <rdf:RDF>
      <cc:Work
         rdf:about="">
        <dc:format>image/svg+xml</dc:format>
        <dc:type
           rdf:resource="http://purl.org/dc/dcmitype/StillImage" />
        <dc:title />
      </cc:Work>
    </rdf:RDF>
  </metadata>
  <g
     inkscape:label="Layer 1"
     inkscape:groupmode="layer"
     id="layer1">
    <path
       sodipodi:type="star"
       style="fill:#fa5a5a;fill-opacity:1;stroke:url(#linearGradient5787);stroke-width:0.814672;stroke-linecap:round;stroke-linejoin:round;stroke-miterlimit:4;stroke-dasharray:none;stroke-opacity:1;paint-order:stroke fill markers"
       id="path3762"
       sodipodi:sides="4"
       sodipodi:cx="32"
       sodipodi:cy="32"
       sodipodi:r1="22.811083"
       sodipodi:r2="13.923287"
       sodipodi:arg1="2.3507061"
       sodipodi:arg2="3.1361043"
       inkscape:flatsided="true"
       inkscape:rounded="0.1"
       inkscape:randomized="0"
       d="m 15.958898,48.218155 c -2.293593,-2.268554 -2.445607,-29.965663 -0.177053,-32.259257 2.268554,-2.293593 29.965663,-2.445607 32.259257,-0.177053 2.293593,2.268554 2.445607,29.965663 0.177053,32.259257 -2.268554,2.293593 -29.965663,2.445607 -32.259257,0.177053 z" />
    <g
       transform="matrix(0.60171497,0,0,0.60171497,12.745107,12.745135)"
       aria-label="E"
       id="g906"
       style="font-style:normal;font-weight:normal;font-size:40px;line-height:1.25;font-family:sans-serif;fill:#ffffff;fill-opacity:1;stroke:none;stroke-width:2;stroke-miterlimit:4;stroke-dasharray:none;stroke-opacity:1">
      <g
         style="opacity:1;fill:#ffffff;fill-opacity:1;stroke:none"
         id="g908">
        <path
           id="path910"
           d="m 22.619999,47.619999 c -0.453333,0 -0.826667,-0.146667 -1.12,-0.44 -0.293333,-0.293333 -0.44,-0.666667 -0.44,-1.12 v -28.12 c 0,-0.453333 0.146667,-0.826667 0.44,-1.12 0.293333,-0.293333 0.666667,-0.44 1.12,-0.44 h 18.76 c 0.426667,0 0.786667,0.146667 1.08,0.44 0.32,0.266667 0.48,0.626667 0.48,1.08 0,0.4 -0.16,0.746667 -0.48,1.04 -0.293333,0.293333 -0.653333,0.44 -1.08,0.44 h -17.2 v 11.04 h 12.52 c 0.453333,0 0.826667,0.146667 1.12,0.44 0.293333,0.293333 0.44,0.653333 0.44,1.08 0,0.426667 -0.146667,0.786667 -0.44,1.08 -0.293333,0.293333 -0.666667,0.44 -1.12,0.44 h -12.52 v 11.16 h 17.2 c 0.426667,0 0.786667,0.146667 1.08,0.44 0.32,0.293333 0.48,0.64 0.48,1.04 0,0.453333 -0.16,0.826667 -0.48,1.12 -0.293333,0.266667 -0.653333,0.4 -1.08,0.4 z"
           style="color:#000000;font-style:normal;font-variant:normal;font-weight:normal;font-stretch:normal;font-size:medium;line-height:1.25;font-family:sans-serif;font-variant-ligatures:normal;font-variant-position:normal;font-variant-caps:normal;font-variant-numeric:normal;font-variant-alternates:normal;font-variant-east-asian:normal;font-feature-settings:normal;font-variation-settings:normal;text-indent:0;text-align:start;text-decoration:none;text-decoration-line:none;text-decoration-style:solid;text-decoration-color:#000000;letter-spacing:normal;word-spacing:normal;text-transform:none;writing-mode:lr-tb;direction:ltr;text-orientation:mixed;dominant-baseline:auto;baseline-shift:baseline;text-anchor:start;white-space:normal;shape-padding:0;shape-margin:0;inline-size:0;clip-rule:nonzero;display:inline;overflow:visible;visibility:visible;isolation:auto;mix-blend-mode:normal;color-interpolation:sRGB;color-interpolation-filters:linearRGB;solid-color:#000000;solid-opacity:1;vector-effect:none;fill:#ffffff;fill-opacity:1;fill-rule:nonzero;stroke:none;stroke-width:2;stroke-linecap:butt;stroke-linejoin:miter;stroke-miterlimit:4;stroke-dasharray:none;stroke-dashoffset:0;stroke-opacity:1;color-rendering:auto;image-rendering:auto;shape-rendering:auto;text-rendering:auto;enable-background:accumulate;stop-color:#000000;stop-opacity:1" />
        <path
           d="m 22.619141,15.380859 c -0.66902,0 -1.350705,0.256955 -1.826172,0.732422 -0.475467,0.475467 -0.732422,1.157153 -0.732422,1.826172 v 28.121094 c 0,0.669019 0.256955,1.350705 0.732422,1.826172 0.475467,0.475467 1.157152,0.732422 1.826172,0.732422 h 18.761718 c 0.635,0 1.280052,-0.231156 1.751953,-0.660157 h 0.002 v -0.002 c 0.509156,-0.466727 0.804687,-1.168794 0.804687,-1.857422 0,-0.658602 -0.317982,-1.309755 -0.794922,-1.755859 -0.463843,-0.453534 -1.116457,-0.724609 -1.763672,-0.724609 H 25.179688 v -9.158203 h 11.519531 c 0.669019,0 1.352658,-0.258908 1.828125,-0.734376 0.464753,-0.464753 0.732422,-1.131276 0.732422,-1.787109 0,-0.655833 -0.267669,-1.322356 -0.732422,-1.787109 -0.475467,-0.475467 -1.159106,-0.732422 -1.828125,-0.732422 H 25.179688 v -9.039063 h 16.201171 c 0.647215,0 1.299829,-0.271075 1.763672,-0.724609 0.47694,-0.446104 0.794922,-1.097257 0.794922,-1.755859 0,-0.674094 -0.308914,-1.361905 -0.822265,-1.808594 -0.462509,-0.440524 -1.099218,-0.710938 -1.736329,-0.710938 z m 0,2 h 18.761718 c 0.1975,0 0.249181,0.02457 0.371094,0.146485 l 0.0332,0.03125 0.03516,0.0293 c 0.105906,0.08825 0.119141,0.09446 0.119141,0.3125 0,0.133333 -0.0012,0.162395 -0.154297,0.302734 l -0.01758,0.01367 -0.01563,0.01563 c -0.121913,0.121913 -0.173594,0.148437 -0.371094,0.148437 H 23.179688 v 13.039063 h 13.519531 c 0.237647,0 0.302862,0.03528 0.414062,0.146484 0.121914,0.121914 0.146485,0.175547 0.146485,0.373047 0,0.1975 -0.02457,0.251133 -0.146485,0.373047 -0.1112,0.1112 -0.176415,0.148437 -0.414062,0.148438 H 23.179688 v 13.158203 h 18.201171 c 0.1975,0 0.249181,0.02652 0.371094,0.148437 l 0.01563,0.01563 0.01758,0.01367 c 0.153097,0.140339 0.154297,0.169401 0.154297,0.302734 0,0.216697 -0.0236,0.262568 -0.152344,0.38086 0,0 -0.002,0 -0.002,0 0,0 0,0.002 0,0.002 -0.113643,0.102941 -0.187224,0.136719 -0.404297,0.136719 H 22.619141 c -0.237647,0 -0.30091,-0.03529 -0.41211,-0.146485 -0.1112,-0.1112 -0.146484,-0.174462 -0.146484,-0.412109 v -28.12115 c 0,-0.237647 0.03528,-0.300909 0.146484,-0.412109 0.1112,-0.1112 0.174463,-0.146485 0.41211,-0.146485 z"
           style="color:#000000;font-style:normal;font-variant:normal;font-weight:normal;font-stretch:normal;font-size:medium;line-height:1.25;font-family:sans-serif;font-variant-ligatures:normal;font-variant-position:normal;font-variant-caps:normal;font-variant-numeric:normal;font-variant-alternates:normal;font-variant-east-asian:normal;font-feature-settings:normal;font-variation-settings:normal;text-indent:0;text-align:start;text-decoration:none;text-decoration-line:none;text-decoration-style:solid;text-decoration-color:#000000;letter-spacing:normal;word-spacing:normal;text-transform:none;writing-mode:lr-tb;direction:ltr;text-orientation:mixed;dominant-baseline:auto;baseline-shift:baseline;text-anchor:start;white-space:normal;shape-padding:0;shape-margin:0;inline-size:0;clip-rule:nonzero;display:inline;overflow:visible;visibility:visible;isolation:auto;mix-blend-mode:normal;color-interpolation:sRGB;color-interpolation-filters:linearRGB;solid-color:#000000;solid-opacity:1;vector-effect:none;fill:#ffffff;fill-opacity:1;fill-rule:nonzero;stroke:none;stroke-width:2;stroke-linecap:butt;stroke-linejoin:miter;stroke-miterlimit:4;stroke-dasharray:none;stroke-dashoffset:0;stroke-opacity:1;color-rendering:auto;image-rendering:auto;shape-rendering:auto;text-rendering:auto;enable-background:accumulate;stop-color:#000000;stop-opacity:1"
           id="path912" />
      </g>
    </g>
  </g>
</svg>
