<?xml version="1.0" encoding="UTF-8" standalone="no"?>
<svg
   xmlns:dc="http://purl.org/dc/elements/1.1/"
   xmlns:cc="http://creativecommons.org/ns#"
   xmlns:rdf="http://www.w3.org/1999/02/22-rdf-syntax-ns#"
   xmlns:svg="http://www.w3.org/2000/svg"
   xmlns="http://www.w3.org/2000/svg"
   xmlns:sodipodi="http://sodipodi.sourceforge.net/DTD/sodipodi-0.dtd"
   xmlns:inkscape="http://www.inkscape.org/namespaces/inkscape"
   sodipodi:docname="maximized-active.svg"
   inkscape:version="1.0 (4035a4fb49, 2020-05-01)"
   width="64.0px"
   height="64.0px"
   viewBox="0 0 64.0 64.0"
   version="1.1"
   id="SVGRoot">
  <defs
     id="defs3962" />
  <sodipodi:namedview
     inkscape:window-maximized="0"
     inkscape:window-y="0"
     inkscape:window-x="40"
     inkscape:window-height="940"
     inkscape:window-width="1782"
     showgrid="true"
     inkscape:document-rotation="0"
     inkscape:current-layer="layer1"
     inkscape:document-units="px"
     inkscape:cy="59.35864"
     inkscape:cx="-10.878715"
     inkscape:zoom="5.3104666"
     inkscape:pageshadow="2"
     inkscape:pageopacity="0.0"
     borderopacity="1.0"
     bordercolor="#666666"
     pagecolor="#ffffff"
     id="base">
    <inkscape:grid
       type="xygrid"
       id="grid3971" />
  </sodipodi:namedview>
  <metadata
     id="metadata3965">
    <rdf:RDF>
      <cc:Work
         rdf:about="">
        <dc:format>image/svg+xml</dc:format>
        <dc:type
           rdf:resource="http://purl.org/dc/dcmitype/StillImage" />
        <dc:title></dc:title>
      </cc:Work>
    </rdf:RDF>
  </metadata>
  <g
     id="layer1"
     inkscape:groupmode="layer"
     inkscape:label="Layer 1">
    <circle
       transform="rotate(30)"
       r="12.813896"
       cy="11.712759"
       cx="40.346344"
       id="path3997"
       style="font-variation-settings:'wght' 700;opacity:0.7;fill:none;fill-opacity:1;stroke:none;stroke-width:0.163642" />
    <g
       transform="matrix(1.0245455,0.59152161,-0.59152161,1.0245455,15.828264,-5.0923022)"
       style="font-style:normal;font-weight:normal;font-size:40px;line-height:1.25;font-family:sans-serif;fill:#cf8ef4;fill-opacity:1;stroke:none;stroke-opacity:1"
       id="text3980"
       aria-label="→">
      <path
         style="fill:#cf8ef4;fill-opacity:1;stroke:none;stroke-opacity:1"
         sodipodi:nodetypes="scsccssscscsscssssccs"
         id="path3982"
         d="m 39.24,30.96 c -0.426667,0 -0.8,-0.146667 -1.12,-0.44 -0.293333,-0.293333 -0.44,-0.666667 -0.44,-1.12 0,-0.426667 0.146667,-0.8 0.44,-1.12 l 3.64,-3.64 h -7.68 c -0.453333,0 -0.826667,-0.146667 -1.12,-0.44 -0.293333,-0.293333 -0.44,-0.666667 -0.44,-1.12 0,-0.426667 0.146667,-0.786667 0.44,-1.08 0.293333,-0.32 0.666667,-0.48 1.12,-0.48 h 7.68 l -3.64,-3.64 c -0.293333,-0.293333 -0.44,-0.64 -0.44,-1.04 0,-0.453333 0.146667,-0.826667 0.44,-1.12 0.293333,-0.32 0.666667,-0.48 1.12,-0.48 0.426667,0 0.786667,0.146667 1.08,0.44 l 6.36,6.36 c 0.293333,0.293333 0.44,0.64 0.44,1.04 0,0.426667 -0.146667,0.786667 -0.44,1.08 l -6.36,6.32 c -0.293333,0.32 -0.653333,0.48 -1.08,0.48 z" />
    </g>
    <g
       transform="matrix(1.0245457,-0.59152114,0.59152114,1.0245457,-33.42583,42.175688)"
       style="font-style:normal;font-weight:normal;font-size:40px;line-height:1.25;font-family:sans-serif;fill:#cf8ef4;fill-opacity:1;stroke:none;stroke-opacity:1"
       id="g3991"
       aria-label="→">
      <path
         style="fill:#cf8ef4;fill-opacity:1;stroke:none;stroke-opacity:1"
         sodipodi:nodetypes="scsccssscscsscssssccs"
         id="path3989"
         d="m 40.4,15.24 c 0.426667,0 0.8,0.146667 1.12,0.44 0.293333,0.293333 0.44,0.666667 0.44,1.12 0,0.426667 -0.146667,0.8 -0.44,1.12 l -3.64,3.64 h 7.68 c 0.453333,0 0.826667,0.146667 1.12,0.44 0.293333,0.293333 0.44,0.666667 0.44,1.12 0,0.426667 -0.146667,0.786667 -0.44,1.08 -0.293333,0.32 -0.666667,0.48 -1.12,0.48 h -7.68 l 3.64,3.64 c 0.293333,0.293333 0.44,0.64 0.44,1.04 0,0.453333 -0.146667,0.826667 -0.44,1.12 -0.293333,0.32 -0.666667,0.48 -1.12,0.48 -0.426667,0 -0.786667,-0.146667 -1.08,-0.44 l -6.36,-6.36 c -0.293333,-0.293333 -0.44,-0.64 -0.44,-1.04 0,-0.426667 0.146667,-0.786667 0.44,-1.08 l 6.36,-6.32 c 0.293333,-0.32 0.653333,-0.48 1.08,-0.48 z" />
    </g>
    <g
       aria-label="→"
       id="g3995"
       style="font-style:normal;font-weight:normal;font-size:40px;line-height:1.25;font-family:sans-serif;fill:#cf8ef4;fill-opacity:1;stroke:none;stroke-opacity:1"
       transform="matrix(5.2682413e-7,-1.1830432,1.1830432,5.2682413e-7,4.8136219,69.494984)">
      <path
         style="fill:#cf8ef4;fill-opacity:1;stroke:none;stroke-opacity:1"
         d="m 39.24,30.96 c -0.426667,0 -0.8,-0.146667 -1.12,-0.44 -0.293333,-0.293333 -0.44,-0.666667 -0.44,-1.12 0,-0.426667 0.146667,-0.8 0.44,-1.12 l 3.64,-3.64 h -7.68 c -0.453333,0 -0.826667,-0.146667 -1.12,-0.44 -0.293333,-0.293333 -0.44,-0.666667 -0.44,-1.12 0,-0.426667 0.146667,-0.786667 0.44,-1.08 0.293333,-0.32 0.666667,-0.48 1.12,-0.48 h 7.68 l -3.64,-3.64 c -0.293333,-0.293333 -0.44,-0.64 -0.44,-1.04 0,-0.453333 0.146667,-0.826667 0.44,-1.12 0.293333,-0.32 0.666667,-0.48 1.12,-0.48 0.426667,0 0.786667,0.146667 1.08,0.44 l 6.36,6.36 c 0.293333,0.293333 0.44,0.64 0.44,1.04 0,0.426667 -0.146667,0.786667 -0.44,1.08 l -6.36,6.32 c -0.293333,0.32 -0.653333,0.48 -1.08,0.48 z"
         id="path3993"
         sodipodi:nodetypes="scsccssscscsscssssccs" />
    </g>
  </g>
</svg>
