<?xml version="1.0" encoding="UTF-8" standalone="no"?>
<svg
   xmlns:dc="http://purl.org/dc/elements/1.1/"
   xmlns:cc="http://creativecommons.org/ns#"
   xmlns:rdf="http://www.w3.org/1999/02/22-rdf-syntax-ns#"
   xmlns:svg="http://www.w3.org/2000/svg"
   xmlns="http://www.w3.org/2000/svg"
   xmlns:xlink="http://www.w3.org/1999/xlink"
   xmlns:sodipodi="http://sodipodi.sourceforge.net/DTD/sodipodi-0.dtd"
   xmlns:inkscape="http://www.inkscape.org/namespaces/inkscape"
   id="SVGRoot"
   version="1.1"
   viewBox="0 0 64.0 64.0"
   height="64.0px"
   width="64.0px"
   inkscape:version="1.0 (4035a4fb49, 2020-05-01)"
   sodipodi:docname="maximized-active-press.svg">
  <defs
     id="defs3962">
    <linearGradient
       inkscape:collect="always"
       id="linearGradient4683">
      <stop
         style="stop-color:#cf8ef4;stop-opacity:1;"
         offset="0"
         id="stop4679" />
      <stop
         style="stop-color:#cf8ef4;stop-opacity:0;"
         offset="1"
         id="stop4681" />
    </linearGradient>
    <radialGradient
       inkscape:collect="always"
       xlink:href="#linearGradient4683"
       id="radialGradient4685"
       cx="27.5"
       cy="32.5"
       fx="27.5"
       fy="32.5"
       r="17.5"
       gradientTransform="matrix(1.3714285,0,0,1.3714287,-3.7142859,-10.571429)"
       gradientUnits="userSpaceOnUse" />
  </defs>
  <sodipodi:namedview
     id="base"
     pagecolor="#ffffff"
     bordercolor="#666666"
     borderopacity="1.0"
     inkscape:pageopacity="0.0"
     inkscape:pageshadow="2"
     inkscape:zoom="7.5122483"
     inkscape:cx="29.596925"
     inkscape:cy="42.310314"
     inkscape:document-units="px"
     inkscape:current-layer="layer1"
     inkscape:document-rotation="0"
     showgrid="true"
     inkscape:window-width="1782"
     inkscape:window-height="981"
     inkscape:window-x="40"
     inkscape:window-y="0"
     inkscape:window-maximized="1">
    <inkscape:grid
       id="grid3971"
       type="xygrid" />
  </sodipodi:namedview>
  <metadata
     id="metadata3965">
    <rdf:RDF>
      <cc:Work
         rdf:about="">
        <dc:format>image/svg+xml</dc:format>
        <dc:type
           rdf:resource="http://purl.org/dc/dcmitype/StillImage" />
        <dc:title />
      </cc:Work>
    </rdf:RDF>
  </metadata>
  <g
     inkscape:label="Layer 1"
     inkscape:groupmode="layer"
     id="layer1">
    <circle
       style="font-variation-settings:'wght' 700;opacity:0.7;fill:none;fill-opacity:1;stroke:none;stroke-width:0.163642"
       id="path3997"
       cx="43.078396"
       cy="12.44481"
       r="12.813896"
       transform="rotate(30)" />
    <g
       aria-label="→"
       id="text3980"
       style="font-style:normal;font-weight:normal;font-size:40px;line-height:1.25;font-family:sans-serif;fill:#cf8ef4;fill-opacity:1;stroke:none;stroke-opacity:1"
       transform="matrix(1.0245455,0.59152161,-0.59152161,1.0245455,17.828264,-3.0923022)">
      <path
         d="m 39.24,30.96 c -0.426667,0 -0.8,-0.146667 -1.12,-0.44 -0.293333,-0.293333 -0.44,-0.666667 -0.44,-1.12 0,-0.426667 0.146667,-0.8 0.44,-1.12 l 3.64,-3.64 h -7.68 c -0.453333,0 -0.826667,-0.146667 -1.12,-0.44 -0.293333,-0.293333 -0.44,-0.666667 -0.44,-1.12 0,-0.426667 0.146667,-0.786667 0.44,-1.08 0.293333,-0.32 0.666667,-0.48 1.12,-0.48 h 7.68 l -3.64,-3.64 c -0.293333,-0.293333 -0.44,-0.64 -0.44,-1.04 0,-0.453333 0.146667,-0.826667 0.44,-1.12 0.293333,-0.32 0.666667,-0.48 1.12,-0.48 0.426667,0 0.786667,0.146667 1.08,0.44 l 6.36,6.36 c 0.293333,0.293333 0.44,0.64 0.44,1.04 0,0.426667 -0.146667,0.786667 -0.44,1.08 l -6.36,6.32 c -0.293333,0.32 -0.653333,0.48 -1.08,0.48 z"
         id="path3982"
         sodipodi:nodetypes="scsccssscscsscssssccs"
         style="fill:#cf8ef4;fill-opacity:1;stroke:none;stroke-opacity:1" />
    </g>
    <g
       aria-label="→"
       id="g3991"
       style="font-style:normal;font-weight:normal;font-size:40px;line-height:1.25;font-family:sans-serif;fill:#cf8ef4;fill-opacity:1;stroke:none;stroke-opacity:1"
       transform="matrix(1.0245457,-0.59152114,0.59152114,1.0245457,-31.42583,44.175688)">
      <path
         d="m 40.4,15.24 c 0.426667,0 0.8,0.146667 1.12,0.44 0.293333,0.293333 0.44,0.666667 0.44,1.12 0,0.426667 -0.146667,0.8 -0.44,1.12 l -3.64,3.64 h 7.68 c 0.453333,0 0.826667,0.146667 1.12,0.44 0.293333,0.293333 0.44,0.666667 0.44,1.12 0,0.426667 -0.146667,0.786667 -0.44,1.08 -0.293333,0.32 -0.666667,0.48 -1.12,0.48 h -7.68 l 3.64,3.64 c 0.293333,0.293333 0.44,0.64 0.44,1.04 0,0.453333 -0.146667,0.826667 -0.44,1.12 -0.293333,0.32 -0.666667,0.48 -1.12,0.48 -0.426667,0 -0.786667,-0.146667 -1.08,-0.44 l -6.36,-6.36 c -0.293333,-0.293333 -0.44,-0.64 -0.44,-1.04 0,-0.426667 0.146667,-0.786667 0.44,-1.08 l 6.36,-6.32 c 0.293333,-0.32 0.653333,-0.48 1.08,-0.48 z"
         id="path3989"
         sodipodi:nodetypes="scsccssscscsscssssccs"
         style="fill:#cf8ef4;fill-opacity:1;stroke:none;stroke-opacity:1" />
    </g>
    <g
       transform="matrix(5.2682413e-7,-1.1830432,1.1830432,5.2682413e-7,6.8136219,71.494984)"
       style="font-style:normal;font-weight:normal;font-size:40px;line-height:1.25;font-family:sans-serif;fill:#cf8ef4;fill-opacity:1;stroke:none;stroke-opacity:1"
       id="g3995"
       aria-label="→">
      <path
         sodipodi:nodetypes="scsccssscscsscssssccs"
         id="path3993"
         d="m 39.24,30.96 c -0.426667,0 -0.8,-0.146667 -1.12,-0.44 -0.293333,-0.293333 -0.44,-0.666667 -0.44,-1.12 0,-0.426667 0.146667,-0.8 0.44,-1.12 l 3.64,-3.64 h -7.68 c -0.453333,0 -0.826667,-0.146667 -1.12,-0.44 -0.293333,-0.293333 -0.44,-0.666667 -0.44,-1.12 0,-0.426667 0.146667,-0.786667 0.44,-1.08 0.293333,-0.32 0.666667,-0.48 1.12,-0.48 h 7.68 l -3.64,-3.64 c -0.293333,-0.293333 -0.44,-0.64 -0.44,-1.04 0,-0.453333 0.146667,-0.826667 0.44,-1.12 0.293333,-0.32 0.666667,-0.48 1.12,-0.48 0.426667,0 0.786667,0.146667 1.08,0.44 l 6.36,6.36 c 0.293333,0.293333 0.44,0.64 0.44,1.04 0,0.426667 -0.146667,0.786667 -0.44,1.08 l -6.36,6.32 c -0.293333,0.32 -0.653333,0.48 -1.08,0.48 z"
         style="fill:#cf8ef4;fill-opacity:1;stroke:none;stroke-opacity:1" />
    </g>
    <circle
       style="font-variation-settings:'wght' 700;opacity:0.7;fill:url(#radialGradient4685);fill-opacity:1;stroke:none;stroke-width:0.724483;stroke-opacity:1"
       id="path4667"
       cx="34"
       cy="34"
       r="24" />
  </g>
</svg>
